<mxfile host="Electron" modified="2024-12-04T12:12:23.082Z" agent="Mozilla/5.0 (Windows NT 10.0; Win64; x64) AppleWebKit/537.36 (KHTML, like Gecko) draw.io/24.2.5 Chrome/120.0.6099.109 Electron/28.1.0 Safari/537.36" etag="J8j421ZObrWs84QDSjob" version="24.2.5" type="device">
  <diagram name="第 1 页" id="ZBS3dRTBz7jEM28Q3Bgv">
    <mxGraphModel dx="1050" dy="1798" grid="1" gridSize="10" guides="1" tooltips="1" connect="1" arrows="1" fold="1" page="1" pageScale="1" pageWidth="827" pageHeight="1169" math="0" shadow="0">
      <root>
        <mxCell id="0" />
        <mxCell id="1" parent="0" />
        <mxCell id="2GqDTKz6sqW9dtlPDT0N-1" value="" style="rounded=1;whiteSpace=wrap;html=1;" vertex="1" parent="1">
          <mxGeometry x="200" y="240" width="130" height="40" as="geometry" />
        </mxCell>
        <mxCell id="2GqDTKz6sqW9dtlPDT0N-2" value="Actor" style="shape=umlActor;verticalLabelPosition=bottom;verticalAlign=top;html=1;outlineConnect=0;" vertex="1" parent="1">
          <mxGeometry x="40" y="230" width="40" height="60" as="geometry" />
        </mxCell>
        <mxCell id="2GqDTKz6sqW9dtlPDT0N-3" style="edgeStyle=orthogonalEdgeStyle;rounded=0;orthogonalLoop=1;jettySize=auto;html=1;entryX=0;entryY=0.5;entryDx=0;entryDy=0;" edge="1" parent="1" source="2GqDTKz6sqW9dtlPDT0N-2" target="2GqDTKz6sqW9dtlPDT0N-1">
          <mxGeometry relative="1" as="geometry">
            <mxPoint x="270" y="260" as="targetPoint" />
          </mxGeometry>
        </mxCell>
        <mxCell id="2GqDTKz6sqW9dtlPDT0N-15" style="edgeStyle=orthogonalEdgeStyle;rounded=0;orthogonalLoop=1;jettySize=auto;html=1;" edge="1" parent="1" source="2GqDTKz6sqW9dtlPDT0N-4" target="2GqDTKz6sqW9dtlPDT0N-12">
          <mxGeometry relative="1" as="geometry" />
        </mxCell>
        <mxCell id="2GqDTKz6sqW9dtlPDT0N-4" value="" style="rounded=1;whiteSpace=wrap;html=1;" vertex="1" parent="1">
          <mxGeometry x="420" y="140" width="120" height="60" as="geometry" />
        </mxCell>
        <mxCell id="2GqDTKz6sqW9dtlPDT0N-5" value="" style="endArrow=classic;html=1;rounded=0;exitX=1;exitY=0.5;exitDx=0;exitDy=0;entryX=0;entryY=0.5;entryDx=0;entryDy=0;" edge="1" parent="1" source="2GqDTKz6sqW9dtlPDT0N-1" target="2GqDTKz6sqW9dtlPDT0N-4">
          <mxGeometry width="50" height="50" relative="1" as="geometry">
            <mxPoint x="390" y="350" as="sourcePoint" />
            <mxPoint x="440" y="300" as="targetPoint" />
          </mxGeometry>
        </mxCell>
        <mxCell id="2GqDTKz6sqW9dtlPDT0N-6" value="" style="shape=cylinder3;whiteSpace=wrap;html=1;boundedLbl=1;backgroundOutline=1;size=15;" vertex="1" parent="1">
          <mxGeometry x="610" y="-10" width="60" height="80" as="geometry" />
        </mxCell>
        <mxCell id="2GqDTKz6sqW9dtlPDT0N-7" value="" style="shape=cylinder3;whiteSpace=wrap;html=1;boundedLbl=1;backgroundOutline=1;size=15;" vertex="1" parent="1">
          <mxGeometry x="680" y="110" width="60" height="80" as="geometry" />
        </mxCell>
        <mxCell id="2GqDTKz6sqW9dtlPDT0N-9" value="" style="endArrow=classic;html=1;rounded=0;" edge="1" parent="1" target="2GqDTKz6sqW9dtlPDT0N-6">
          <mxGeometry width="50" height="50" relative="1" as="geometry">
            <mxPoint x="540" y="150" as="sourcePoint" />
            <mxPoint x="530" y="220" as="targetPoint" />
          </mxGeometry>
        </mxCell>
        <mxCell id="2GqDTKz6sqW9dtlPDT0N-10" value="" style="endArrow=classic;html=1;rounded=0;exitX=1;exitY=0.5;exitDx=0;exitDy=0;" edge="1" parent="1" source="2GqDTKz6sqW9dtlPDT0N-4" target="2GqDTKz6sqW9dtlPDT0N-7">
          <mxGeometry width="50" height="50" relative="1" as="geometry">
            <mxPoint x="480" y="270" as="sourcePoint" />
            <mxPoint x="530" y="220" as="targetPoint" />
          </mxGeometry>
        </mxCell>
        <mxCell id="2GqDTKz6sqW9dtlPDT0N-12" value="" style="shape=cylinder3;whiteSpace=wrap;html=1;boundedLbl=1;backgroundOutline=1;size=15;" vertex="1" parent="1">
          <mxGeometry x="450" y="-90" width="60" height="140" as="geometry" />
        </mxCell>
        <mxCell id="2GqDTKz6sqW9dtlPDT0N-14" value="" style="rounded=1;whiteSpace=wrap;html=1;" vertex="1" parent="1">
          <mxGeometry x="440" y="-230" width="120" height="60" as="geometry" />
        </mxCell>
        <mxCell id="2GqDTKz6sqW9dtlPDT0N-16" value="" style="endArrow=classic;html=1;rounded=0;entryX=0.63;entryY=1.003;entryDx=0;entryDy=0;entryPerimeter=0;" edge="1" parent="1" source="2GqDTKz6sqW9dtlPDT0N-12" target="2GqDTKz6sqW9dtlPDT0N-14">
          <mxGeometry width="50" height="50" relative="1" as="geometry">
            <mxPoint x="560" y="60" as="sourcePoint" />
            <mxPoint x="610" y="10" as="targetPoint" />
          </mxGeometry>
        </mxCell>
        <mxCell id="2GqDTKz6sqW9dtlPDT0N-21" style="edgeStyle=orthogonalEdgeStyle;rounded=0;orthogonalLoop=1;jettySize=auto;html=1;" edge="1" parent="1" source="2GqDTKz6sqW9dtlPDT0N-17" target="2GqDTKz6sqW9dtlPDT0N-18">
          <mxGeometry relative="1" as="geometry" />
        </mxCell>
        <mxCell id="2GqDTKz6sqW9dtlPDT0N-17" value="" style="rounded=0;whiteSpace=wrap;html=1;" vertex="1" parent="1">
          <mxGeometry x="414" y="310" width="120" height="60" as="geometry" />
        </mxCell>
        <mxCell id="2GqDTKz6sqW9dtlPDT0N-18" value="" style="shape=cylinder3;whiteSpace=wrap;html=1;boundedLbl=1;backgroundOutline=1;size=15;" vertex="1" parent="1">
          <mxGeometry x="340" y="410" width="60" height="80" as="geometry" />
        </mxCell>
        <mxCell id="2GqDTKz6sqW9dtlPDT0N-19" value="" style="ellipse;whiteSpace=wrap;html=1;" vertex="1" parent="1">
          <mxGeometry x="250" y="545" width="120" height="80" as="geometry" />
        </mxCell>
        <mxCell id="2GqDTKz6sqW9dtlPDT0N-20" value="" style="endArrow=classic;html=1;rounded=0;entryX=0.5;entryY=0;entryDx=0;entryDy=0;" edge="1" parent="1" source="2GqDTKz6sqW9dtlPDT0N-18" target="2GqDTKz6sqW9dtlPDT0N-19">
          <mxGeometry width="50" height="50" relative="1" as="geometry">
            <mxPoint x="510" y="490" as="sourcePoint" />
            <mxPoint x="560" y="440" as="targetPoint" />
          </mxGeometry>
        </mxCell>
        <mxCell id="2GqDTKz6sqW9dtlPDT0N-22" value="" style="endArrow=classic;html=1;rounded=0;entryX=0.387;entryY=0.043;entryDx=0;entryDy=0;entryPerimeter=0;exitX=1;exitY=1;exitDx=0;exitDy=0;" edge="1" parent="1" source="2GqDTKz6sqW9dtlPDT0N-1" target="2GqDTKz6sqW9dtlPDT0N-17">
          <mxGeometry width="50" height="50" relative="1" as="geometry">
            <mxPoint x="370" y="350" as="sourcePoint" />
            <mxPoint x="420" y="300" as="targetPoint" />
          </mxGeometry>
        </mxCell>
        <mxCell id="2GqDTKz6sqW9dtlPDT0N-29" style="edgeStyle=orthogonalEdgeStyle;rounded=0;orthogonalLoop=1;jettySize=auto;html=1;" edge="1" parent="1" source="2GqDTKz6sqW9dtlPDT0N-23" target="2GqDTKz6sqW9dtlPDT0N-28">
          <mxGeometry relative="1" as="geometry" />
        </mxCell>
        <mxCell id="2GqDTKz6sqW9dtlPDT0N-23" value="" style="rounded=0;whiteSpace=wrap;html=1;" vertex="1" parent="1">
          <mxGeometry x="690" y="250" width="120" height="60" as="geometry" />
        </mxCell>
        <mxCell id="2GqDTKz6sqW9dtlPDT0N-24" value="Actor" style="shape=umlActor;verticalLabelPosition=bottom;verticalAlign=top;html=1;outlineConnect=0;" vertex="1" parent="1">
          <mxGeometry x="1120" y="170" width="30" height="60" as="geometry" />
        </mxCell>
        <mxCell id="2GqDTKz6sqW9dtlPDT0N-25" style="edgeStyle=orthogonalEdgeStyle;rounded=0;orthogonalLoop=1;jettySize=auto;html=1;entryX=0.01;entryY=0.15;entryDx=0;entryDy=0;entryPerimeter=0;" edge="1" parent="1" source="2GqDTKz6sqW9dtlPDT0N-1" target="2GqDTKz6sqW9dtlPDT0N-23">
          <mxGeometry relative="1" as="geometry" />
        </mxCell>
        <mxCell id="2GqDTKz6sqW9dtlPDT0N-26" value="" style="endArrow=classic;html=1;rounded=0;entryX=0.5;entryY=0.5;entryDx=0;entryDy=0;entryPerimeter=0;exitX=1;exitY=0.25;exitDx=0;exitDy=0;" edge="1" parent="1" source="2GqDTKz6sqW9dtlPDT0N-23" target="2GqDTKz6sqW9dtlPDT0N-24">
          <mxGeometry width="50" height="50" relative="1" as="geometry">
            <mxPoint x="920" y="350" as="sourcePoint" />
            <mxPoint x="650" y="280" as="targetPoint" />
          </mxGeometry>
        </mxCell>
        <mxCell id="2GqDTKz6sqW9dtlPDT0N-27" value="" style="shape=cylinder3;whiteSpace=wrap;html=1;boundedLbl=1;backgroundOutline=1;size=15;" vertex="1" parent="1">
          <mxGeometry x="600" y="530" width="60" height="80" as="geometry" />
        </mxCell>
        <mxCell id="2GqDTKz6sqW9dtlPDT0N-30" style="edgeStyle=orthogonalEdgeStyle;rounded=0;orthogonalLoop=1;jettySize=auto;html=1;" edge="1" parent="1" source="2GqDTKz6sqW9dtlPDT0N-28" target="2GqDTKz6sqW9dtlPDT0N-27">
          <mxGeometry relative="1" as="geometry" />
        </mxCell>
        <mxCell id="2GqDTKz6sqW9dtlPDT0N-28" value="" style="rounded=1;whiteSpace=wrap;html=1;" vertex="1" parent="1">
          <mxGeometry x="610" y="410" width="120" height="60" as="geometry" />
        </mxCell>
      </root>
    </mxGraphModel>
  </diagram>
</mxfile>
